<svg width="106" height="15" viewBox="0 0 106 15" fill="none" xmlns="http://www.w3.org/2000/svg">
<path d="M2.34 10.1V7.97999H8.26C8.96667 7.97999 9.52667 7.79332 9.94 7.41999C10.3533 7.03332 10.56 6.49999 10.56 5.81999C10.56 5.11332 10.3533 4.57332 9.94 4.19999C9.52667 3.82665 8.96667 3.63999 8.26 3.63999H2.66V14.3H5.96046e-08V1.35999H8.02C8.74 1.35999 9.41333 1.44665 10.04 1.61999C10.68 1.79332 11.2333 2.05999 11.7 2.41999C12.18 2.77999 12.5533 3.23999 12.82 3.79999C13.0867 4.35999 13.22 5.03332 13.22 5.81999C13.22 6.59332 13.0867 7.25332 12.82 7.79999C12.5533 8.34665 12.18 8.79332 11.7 9.13999C11.2333 9.47332 10.68 9.71999 10.04 9.87999C9.41333 10.0267 8.74 10.1 8.02 10.1H2.34ZM19.8916 14.52C18.9049 14.52 18.0049 14.3067 17.1916 13.88C16.3916 13.44 15.7516 12.8333 15.2716 12.06C14.8049 11.2733 14.5716 10.3667 14.5716 9.33999C14.5716 8.28665 14.8116 7.37332 15.2916 6.59999C15.7716 5.82665 16.4182 5.22665 17.2316 4.79999C18.0582 4.35999 18.9916 4.13999 20.0316 4.13999C21.1782 4.13999 22.0982 4.37332 22.7916 4.83999C23.4982 5.29332 24.0116 5.91332 24.3316 6.69999C24.6516 7.48665 24.8116 8.36665 24.8116 9.33999C24.8116 9.92665 24.7182 10.5267 24.5316 11.14C24.3449 11.74 24.0582 12.3 23.6716 12.82C23.2849 13.3267 22.7782 13.74 22.1516 14.06C21.5249 14.3667 20.7716 14.52 19.8916 14.52ZM20.7316 12.52C21.5182 12.52 22.1982 12.3867 22.7716 12.12C23.3449 11.8533 23.7849 11.48 24.0916 11C24.3982 10.52 24.5516 9.96665 24.5516 9.33999C24.5516 8.65999 24.3916 8.08665 24.0716 7.61999C23.7649 7.13999 23.3249 6.77999 22.7516 6.53999C22.1916 6.28665 21.5182 6.15999 20.7316 6.15999C19.6249 6.15999 18.7649 6.45332 18.1516 7.03999C17.5382 7.61332 17.2316 8.37999 17.2316 9.33999C17.2316 9.97999 17.3782 10.54 17.6716 11.02C17.9649 11.4867 18.3716 11.8533 18.8916 12.12C19.4249 12.3867 20.0382 12.52 20.7316 12.52ZM24.5516 4.35999H27.1516V14.3H24.7316C24.7316 14.3 24.7116 14.1733 24.6716 13.92C24.6449 13.6533 24.6182 13.32 24.5916 12.92C24.5649 12.52 24.5516 12.1267 24.5516 11.74V4.35999ZM28.8047 4.35999H36.5247V6.37999H28.8047V4.35999ZM31.3647 1.63999H33.9647V14.3H31.3647V1.63999ZM41.1566 -1.28746e-05V2.27999H38.1366V-1.28746e-05H41.1566ZM38.3366 4.35999H40.9366V14.3H38.3366V4.35999ZM43.5281 4.35999H46.1281V14.3H43.5281V4.35999ZM50.7481 4.13999C51.3615 4.13999 51.9281 4.21999 52.4481 4.37999C52.9681 4.53999 53.4215 4.78665 53.8081 5.11999C54.1948 5.45332 54.4948 5.87999 54.7081 6.39999C54.9215 6.90665 55.0281 7.51332 55.0281 8.21999V14.3H52.4281V8.67999C52.4281 7.83999 52.2215 7.22665 51.8081 6.83999C51.4081 6.43999 50.7481 6.23999 49.8281 6.23999C49.1348 6.23999 48.5081 6.37332 47.9481 6.63999C47.3881 6.90665 46.9348 7.24665 46.5881 7.65999C46.2415 8.05999 46.0415 8.47999 45.9881 8.91999L45.9681 7.89999C46.0348 7.43332 46.1881 6.97999 46.4281 6.53999C46.6681 6.09999 46.9881 5.69999 47.3881 5.33999C47.8015 4.96665 48.2881 4.67332 48.8481 4.45999C49.4081 4.24665 50.0415 4.13999 50.7481 4.13999ZM56.9953 11H59.3953C59.542 11.4533 59.842 11.8267 60.2953 12.12C60.762 12.4 61.3686 12.54 62.1153 12.54C62.622 12.54 63.0153 12.4933 63.2953 12.4C63.5753 12.3067 63.7686 12.1733 63.8753 12C63.982 11.8133 64.0353 11.6067 64.0353 11.38C64.0353 11.1 63.9486 10.8867 63.7753 10.74C63.602 10.58 63.3353 10.4533 62.9753 10.36C62.6153 10.2667 62.1553 10.18 61.5953 10.1C61.0353 10.0067 60.4953 9.89332 59.9753 9.75999C59.4553 9.62665 58.9953 9.45332 58.5953 9.23999C58.1953 9.01332 57.8753 8.73332 57.6353 8.39999C57.4086 8.05332 57.2953 7.63332 57.2953 7.13999C57.2953 6.65999 57.4086 6.23332 57.6353 5.85999C57.8753 5.48665 58.202 5.17332 58.6153 4.91999C59.042 4.66665 59.5353 4.47332 60.0953 4.33999C60.6686 4.20665 61.282 4.13999 61.9353 4.13999C62.922 4.13999 63.742 4.28665 64.3953 4.57999C65.0486 4.85999 65.5353 5.25999 65.8553 5.77999C66.1886 6.28665 66.3553 6.87332 66.3553 7.53999H64.0553C63.9486 7.04665 63.7353 6.69332 63.4153 6.47999C63.0953 6.25332 62.602 6.13999 61.9353 6.13999C61.282 6.13999 60.7886 6.23999 60.4553 6.43999C60.122 6.63999 59.9553 6.91332 59.9553 7.25999C59.9553 7.53999 60.0553 7.75999 60.2553 7.91999C60.4686 8.06665 60.7753 8.18665 61.1753 8.27999C61.5886 8.37332 62.102 8.47332 62.7153 8.57999C63.2353 8.68665 63.7286 8.80665 64.1953 8.93999C64.6753 9.07332 65.102 9.24665 65.4753 9.45999C65.8486 9.65999 66.142 9.93332 66.3553 10.28C66.582 10.6133 66.6953 11.04 66.6953 11.56C66.6953 12.2 66.5086 12.74 66.1353 13.18C65.7753 13.62 65.2553 13.96 64.5753 14.2C63.8953 14.4267 63.082 14.54 62.1353 14.54C61.2953 14.54 60.5686 14.4533 59.9553 14.28C59.3553 14.0933 58.8553 13.86 58.4553 13.58C58.0553 13.2867 57.742 12.98 57.5153 12.66C57.302 12.3267 57.1553 12.0133 57.0753 11.72C56.9953 11.4267 56.9686 11.1867 56.9953 11Z" fill="black"/>
<path d="M98.5621 1.83449C98.8843 0.963874 100.116 0.963875 100.438 1.83449L101.501 4.70802C101.602 4.98174 101.818 5.19755 102.092 5.29884L104.965 6.36214C105.836 6.68429 105.836 7.91568 104.965 8.23784L102.092 9.30114C101.818 9.40243 101.602 9.61824 101.501 9.89196L100.438 12.7655C100.116 13.6361 98.8843 13.6361 98.5621 12.7655L97.4988 9.89196C97.3976 9.61824 97.1818 9.40243 96.908 9.30114L94.0345 8.23784C93.1639 7.91568 93.1639 6.68429 94.0345 6.36214L96.908 5.29884C97.1818 5.19755 97.3976 4.98174 97.4988 4.70802L98.5621 1.83449Z" fill="black"/>
</svg>
